<svg width="35" height="35" viewBox="0 0 35 35" fill="none" xmlns="http://www.w3.org/2000/svg">
<path d="M17.4419 32.0349H4.36044C3.55811 32.0349 2.90698 31.3837 2.90698 30.5814V4.41861C2.90698 3.61628 3.55817 2.96516 4.36044 2.96516H17.4419C18.2457 2.96516 18.8954 2.31547 18.8954 1.5117C18.8954 0.70793 18.2457 0.0581055 17.4419 0.0581055H4.36044C1.95638 0.0581055 0 2.01455 0 4.41861V30.5814C0 32.9854 1.95638 34.9418 4.36044 34.9418H17.4419C18.2457 34.9418 18.8954 34.2921 18.8954 33.4884C18.8954 32.6846 18.2457 32.0349 17.4419 32.0349Z" fill="#505050"/>
<path d="M34.5669 16.4651L25.7296 7.74416C25.1599 7.1802 24.2384 7.18751 23.6744 7.75872C23.1105 8.32994 23.1163 9.24998 23.689 9.81395L30.0044 16.0465H13.0814C12.2776 16.0465 11.6279 16.6962 11.6279 17.4999C11.6279 18.3037 12.2776 18.9535 13.0814 18.9535H30.0044L23.689 25.186C23.1163 25.75 23.112 26.67 23.6744 27.2412C23.9593 27.529 24.3343 27.6743 24.7093 27.6743C25.0785 27.6743 25.4477 27.5348 25.7296 27.2557L34.5669 18.5348C34.843 18.2615 35 17.8894 35 17.4999C35 17.1105 34.8445 16.7398 34.5669 16.4651Z" fill="#505050"/>
</svg>
